<svg viewBox="0 0 816 756" xmlns="http://www.w3.org/2000/svg" xmlns:xlink="http://www.w3.org/1999/xlink"><clipPath id="a"><circle cx="408" cy="-499.12" r="367.57"/></clipPath><g clip-path="url(#a)"><path d="m582.8 95.17a3.67 3.67 0 0 1 -1.64-.32c-5-2.42-.77-19.22.69-31.76a120.62 120.62 0 0 0 -.05-24.55c-4.44 9.26-13.7 26.91-18.73 23.68s-1-26.24 1.11-50.07c1.34-15.34 1.12-30.66-1.32-57.51-1.39-14.82-3.43-33.2-6.27-57.06-7.92-67-30.28-149.57-30.28-149.57h-.12a71.83 71.83 0 0 0 -1-14.48l.41-.07c12.69-9.18 26.79-18 34.77-22.81l.3.46c32.75 80.25 44.44 213.89 47.03 264.79 3.47 66.76-.53 103-11.13 117.38a23.21 23.21 0 0 1 -5.91 6.07c-5.9 3.62-7.79-3.71-7.79-3.71z" fill="#faaf7e"/><path d="m258.59 100.26-.06.29s.09 4.56-2.23 5.71c-.64.31-2.1.27-4-.57-5.49-2.41-14.84-11.76-19.72-41-6.58-39.58-2.62-80.58-.77-122.18s-1.88-109.82 36.29-225.6l.17-.24c9.16 5.09 24.83 14.33 36.45 23l.29.05a69.56 69.56 0 0 0 -.35 12.05h-.12s-11.69 44-24.23 133.12c-4.38 31.07-6.62 55.31-7.61 74.33-1.9 35.59.59 52.91 1.81 62.12 2 14.17 8.35 43.23 3.79 46.23s-15.18-6.4-21.3-23.82a193.37 193.37 0 0 0 1.17 25.17c1.51 11.49 7 28.93 1.87 31.19a2.48 2.48 0 0 1 -1.45.15z" fill="#faaf7e"/><path d="m582.73 96.26a4.77 4.77 0 0 1 -2-.43c-4.58-2.21-3-12.18-1.23-23.72.48-3.08 1-6.25 1.31-9.14a118.41 118.41 0 0 0 .29-20.45c-6.44 12.85-11.66 19.91-15.55 21a3.63 3.63 0 0 1 -3-.4c-4.26-2.71-3.22-14.4-1-34.82.56-5.27 1.15-10.72 1.63-16.26 1.4-15.84 1-31.38-1.31-57.31-1.32-14.13-3.31-32.26-6.27-57-7.82-66.13-30-148.6-30.25-149.42a1.07 1.07 0 0 1 .65-1.31 1.09 1.09 0 0 1 1.34.76c.22.83 22.47 83.45 30.31 149.73 3 24.79 5 42.94 6.28 57.09 2.36 26.08 2.71 41.72 1.31 57.7-.48 5.57-1.07 11-1.64 16.3-1.62 15.06-3.3 30.64 0 32.76a1.43 1.43 0 0 0 1.27.14c3.45-1 9.24-9.49 15.9-23.37a1.09 1.09 0 0 1 1.16-.61 1.1 1.1 0 0 1 .9.95 123.14 123.14 0 0 1 0 24.8c-.34 2.94-.84 6.14-1.32 9.23-1.38 8.88-3.1 19.93 0 21.43a2.68 2.68 0 0 0 1.15.22c5.19-.15 14.83-11.89 18.59-42.74a1.09 1.09 0 1 1 2.16.26c-1.75 14.34-5 26.16-9.29 34.19-3.52 6.54-7.68 10.35-11.4 10.46z"/><path d="m587.61 101.44a4.75 4.75 0 0 1 -1.79-.34c-2.94-1.19-4-5-4-5.19a1.08 1.08 0 1 1 2.1-.54c.22.82 1.13 3.07 2.72 3.71a3.86 3.86 0 0 0 3.45-.65 22.66 22.66 0 0 0 5.6-5.79c10.68-14.46 14.25-52.64 10.92-116.64-.7-13.82-3.66-63.39-12.2-121.28-8.88-60.23-20.58-108.4-34.78-143.16a1.07 1.07 0 0 1 .6-1.41 1.08 1.08 0 0 1 1.41.59c14.27 34.92 26 83.26 34.92 143.66 8.55 58 11.52 107.65 12.22 121.49 3.41 65.48-.2 103-11.34 118.07a24.66 24.66 0 0 1 -6.2 6.35 7 7 0 0 1 -3.63 1.13z"/><path d="m259.1 101.39a3.91 3.91 0 0 1 -.68-.06c-6.76-.82-18.49-17.49-22.33-42.9a1.09 1.09 0 1 1 2.15-.32c1.69 11.23 5.19 21.87 9.83 30 4.2 7.32 8.37 10.85 10.64 11.1h.09a1.42 1.42 0 0 0 .8-.07c3-1.3.95-11.54-.68-19.77-.69-3.51-1.41-7.14-1.82-10.28a196.66 196.66 0 0 1 -1.19-25.35 1.11 1.11 0 0 1 .92-1 1.1 1.1 0 0 1 1.2.72c4.63 13.2 12 21.74 16.83 23.37a3.14 3.14 0 0 0 2.8-.11c2.94-1.94-.42-21.84-2.43-33.73-.71-4.23-1.39-8.23-1.84-11.45l-.09-.74c-1.25-9.37-3.58-26.82-1.72-61.58 1.12-21.5 3.68-46.54 7.62-74.43 12.4-88.15 24.13-132.8 24.25-133.25a1.09 1.09 0 0 1 1.33-.77 1.09 1.09 0 0 1 .77 1.33c-.12.44-11.82 45-24.2 133-3.93 27.83-6.49 52.81-7.6 74.24-1.85 34.56.46 51.88 1.7 61.18l.1.74c.44 3.18 1.11 7.16 1.82 11.38 3.88 22.95 5 33.58 1.49 35.9a5.18 5.18 0 0 1 -4.69.36c-5.43-1.81-11.67-9.49-16.1-19.43a172.66 172.66 0 0 0 1.18 19.39c.4 3.08 1.12 6.67 1.8 10.15 2.14 10.83 4 20.18-.57 22.18a3.34 3.34 0 0 1 -1.38.2z"/><path d="m255.3 107.52a9 9 0 0 1 -3.47-.83c-13-5.73-18.58-31.17-20.36-41.84-5.49-33-3.72-66.13-1.85-101.24.37-6.93.75-14.1 1.07-21.17.23-5.42.37-11.37.52-17.67 1-42.76 2.57-107.38 35.82-208.22a1.08 1.08 0 0 1 1.37-.69 1.09 1.09 0 0 1 .7 1.37c-33.15 100.53-34.69 165-35.71 207.6-.15 6.31-.3 12.26-.53 17.71-.32 7.08-.7 14.25-1.07 21.19-1.86 35-3.62 68 1.83 100.76 5.16 31 15.06 38.44 19.07 40.21 1.9.82 3 .67 3.14.58 1.37-.68 1.63-3.71 1.62-4.71a1.08 1.08 0 0 1 1.06-1.11 1.1 1.1 0 0 1 1.11 1.07c0 .54 0 5.28-2.83 6.7a3.42 3.42 0 0 1 -1.49.29z"/></g><path d="m99.55 495.8a28.68 28.68 0 0 0 -9.85 8c-14 18.16-1.71 52 12.66 71.07 13.35 17.72 31.15 26.27 62.63 36.59 24.39 8 63.6 21.72 121.74 27.45 23.5 2.31 39.81 2.5 66.15 2.81 75.75.89 132.92-5 175.92-12 24.34-4 43.64-8.17 65.44-16.19 16.51-6.06 11-5.69 45.74-20.4 29-12.3 37-14.33 45-24.63 7.44-9.6 10.41-20.65 13.37-31.67 1.76-6.55 2.34-13.75 3.52-28.15.64-7.88.73-12.47-2.11-14.77-4.24-3.43-12.4.31-13.37.7-12.02 4.89-180.49 6.03-586.84 1.19z" fill="#d67828"/><path d="m83.36 432.71c-5.54 7.92-5.15 18.09-4.92 23.92.11 3 1.23 24 16.89 37.3 7.38 6.28 10.4 4.39 33.07 13.37 16.11 6.38 18 8.68 32.37 14.77 3.8 1.62 17.27 7.22 45.74 14.78 20.42 5.43 48.58 12.9 87.26 17.59 31.08 3.78 67.88 8.24 114 2.12 24.21-3.22 27-6.17 52.78-8.45 23.36-2.07 39.48-1.28 65.44-7 4.93-1.09 12.15-4.59 23.23-6.33 12.73-2 20-.8 28.85-.7 20 .21 35.16-5.46 56.29-13.37 8.2-3.07 18.13-8.15 38-18.3 22.18-11.33 28.19-15.54 32.37-23.22 1.11-2 7.29-13.37 3.52-24.63-5.39-16.12-27.57-21.31-39.41-23.93-41.21-9.08-77 3.15-80.22 4.23-64.35 21.74-193.49 9.57-451.77-14.78-10.41-1.02-41.77-4.08-53.49 12.63z" fill="#713519"/><path d="m88.29 385.56a101.12 101.12 0 0 0 -21.82 26c-2.18 3.7-9.68 16.43-6.33 19.7 2.41 2.35 8.07-2.46 24.63-5.63 9.54-1.82 13.17-1.28 15.48-.7 6.33 1.57 6.79 4.36 12.67 5.62 6.85 1.48 8.32-1.85 17.59-2.11 6.51-.18 7.64 1.41 19.7 3.52 8.3 1.45 13.67 1.73 17.6 2.11 25.28 2.46 41.8 14.18 80.92 21.82 8 1.55 17.88 3.13 31.67 7.74a211.4 211.4 0 0 1 19.7 7.74c11 4.95 17.17 8.82 28.85 15.48 16.93 9.66 23.39 8.58 31 16.89 3.69 4 3.58 5.43 7.74 9.15 8.19 7.3 13.19 6 20.41 12.66s5.65 10.86 9.85 12c7 1.84 11.61-10 26.74-20.41 5.32-3.64 15.28-7.12 35.19-14.08 21.81-7.61 21.67-6.42 31-10.55 14.41-6.41 14.18-9 33.07-19a314.08 314.08 0 0 1 34.4-15.51c3.93-1.53 7.42-2.8 28.86-9.85 42.6-14 49.08-15.63 59.11-14.78 6.43.54 12.62 2 22.51 4.22 13.06 3 19.59 4.48 25.34 7.74a154.26 154.26 0 0 1 19.7 14.08c5.4 4.47 7.93 7.14 10.56 6.33 4-1.23 5.1-9.53 4.92-14.78-.23-6.89-2.74-10.73-6.33-19-6.11-14.06-5-17.08-7.74-21.81-9.55-16.43-43-14.39-48.56-14.08-86.42 4.94-173.1-4.78-259.66-4.22-115.06.79-291.06-27.85-318.77-6.29z" fill="#ffcd05"/><path d="m100.25 345.45c-1-.91-7.39-7.27-14.78-6.34-6.9.88-11.49 7.73-12 8.45-3.3 5.07-1.29 7.22-4.92 14.78-3 6.31-5.85 7.57-4.93 9.85 1.13 2.81 6.21 3.86 14.78 5.63 5.29 1.09 6.22.84 7.74 2.11 2.86 2.4 1.81 5.23 4.22 12.67 1.58 4.86 2.84 8.59 6.33 11.25a13.06 13.06 0 0 0 8.45 2.82c5-.34 5.94-4.13 11.26-6.33 7.81-3.24 16.15.69 17.59 1.4 5.37 2.66 8 6.71 12 12.67 5.21 7.91 3.85 9.59 8.45 16.18 3.25 4.68 7.57 10.87 15.48 13.37.89.29 9.73 3 18.29-1.4 8.77-4.45 9.35-12.23 14.08-12 5 .28 8.77 9.08 11.26 14.78 3.57 8.23 2.77 11.76 6.33 14.08 5.36 3.49 13.51-.43 14.07-.71 10.3-5.11 7.91-15.49 16.89-19.7 7.65-3.59 17 .37 21.11 2.11 9.89 4.18 9.45 9.08 16.89 10.56 6.72 1.33 12.66-1.56 22.52-6.34 7.26-3.52 8.38-8 14.07-8.44 3.43-.29 6.11.78 11.26 2.81 5.47 2.16 9.05 3.58 12 7 4.05 4.8 2 7.85 5.63 11.26 5.26 4.94 14.36 3.06 15.49 2.81 8.08-1.78 8.59-6.93 16.18-9.14 5.54-1.62 10.11-.29 18.3 2.11 14.74 4.31 15.24 9.11 25.33 10.55a37.21 37.21 0 0 0 22.52-4.22c5.48-3 5.24-6.77 16.18-18.3 6.05-6.37 7.58-7 9.15-7 6.07 0 7.71 9.95 16.19 16.89 7.78 6.36 17.21 6.59 24.62 7 8.3.49 15.77.93 22.52-3.52 7.12-4.69 6.12-10 12.67-12.66 1.41-.58 5.07-1.82 19 2.11 17 4.79 17.18 8.22 23.92 7.74 8.77-.63 10.54-6.59 22.52-11.26 9.87-3.84 12.69-.31 21.82-3.52 6.93-2.44 7.93-5.48 19-13.37 5.6-4 13.37-9.53 23.92-12 10.16-2.34 12.31.64 25.33-2.11 9.63-2 9.24-4.13 16.19-4.93 17.2-2 29.49 6.53 31 4.22 1.79-2.79-6.74-14.29-19-19.7-7.08-3.12-8.41-1.12-14.07-4.22-10.52-5.76-9.89-14.83-18.3-20.41-8.64-5.73-19.59-3-23.92-2.11-35.74 7-133.6-17.21-345.52-1.41-.08.11-200.89 15.09-235.11-16.07z" fill="#68bd45"/><path d="m189.62 443.26c-.55-.43 3.41 1.65 6.1 1.57 2.95-.08 1.62-1.23 5.86-.16 3.76.95 9.13-2.34 9.15-5.63 0-2.54-3.16-5.22-6.33-5.63-7.4-.96-13.92 10.53-14.78 9.85z" fill="#56a545"/><path d="m465.47 445.37c.53 1.77 3.71 1.1 9.85 2.82 10.59 3 15.39 8.95 17.36 7.27 1.6-1.37-.57-6.22-.94-7-2-4.53-5.79-6.71-8-8-2.8-1.63-5.23-3-8.44-2.82-5.46.36-10.57 5.27-9.83 7.73z" fill="#56a545"/><path d="m103.07 337c-5 13.11 0 22.52 0 22.52 2.32 4.33 6 7.07 20.4 14.08 11.39 5.54 17.08 8.31 26.74 12a374.61 374.61 0 0 0 38.71 12.67c26 6.87 47.19 9.17 73.88 12 25.55 2.67 46.59 2.95 88.67 3.52 0 0 3.62 0 28.85-2.82 12-1.36 18.4-2.33 21.11-7 3.09-5.35-1.23-11 1.41-13.37 3.69-3.25 15.37 5.06 24.63 10.56 14.41 8.56 26.26 12 50 19a241.28 241.28 0 0 0 54.89 9.15c31.43 2 54.75-1.84 76.7-5.63 14.94-2.68 35.14-7.05 57.66-17.68 13.13-6.22 21.14-11.79 26-21.12 4.12-7.84 7.44-21 1.41-29.55-6.63-9.39-21.75-9.2-26.74-9.15-93.36.89-186.8-7.65-280.07-3.52-145.32 6.41-273.84-32.66-284.25-5.66z" fill="#dc2d27"/><path d="m543.58 389.08c0 2.65 11.29 4.2 26.74 6.33 18.82 2.59 23.78.41 26.74-2.11 2.49-2.12 6.21-6.71 4.92-9.85-4.15-10.13-58.49-.22-58.4 5.63z" fill="#ed8f79"/><path d="m614.65 381.34c.71 2.69 12 3 20.41.7 3.5-1 2.68-1.32 9.15-3.52 9.28-3.15 13.24-3.18 14.77-6.33a7 7 0 0 0 -.7-7c-6.98-7.89-45.02 10.86-43.63 16.15z" fill="#ed8f79"/><path d="m90.4 318c6.87 8.49 15 11.87 27.44 16.89 5.76 2.32 9.68 3.46 29.56 8.45 20.34 5.1 37.94 9.35 42.92 10.55 27 6.53 24.63 6.14 31.67 7.74 25 5.69 33.58 5.73 62.63 10.56 45.1 7.5 41.12 10.19 66.15 12.66 23.48 2.33 24.17-.32 60.51 1.41 34.53 1.65 35.28 4.1 59.82 4.93 23.69.8 43-1.34 81.63-5.63 33.32-3.7 51.8-5.82 77.4-12s13.1-5.47 52.78-16.89c17-4.9 28.49-7.67 35.89-18.3 4.83-7 6-14.54 6.33-22.52 1.5-38-15.37-69.91-17.59-73.88-15.29-27.32-34.61-42.46-51.37-55.6a263.87 263.87 0 0 0 -68.26-38c-7-2.66-22.68-6.49-53.48-14.77-53.81-14.47-64-16-71.07-16.89-7.26-.9-15.53-1.63-65.45-1.41-35.46.16-53.19-.13-64 .7a439.38 439.38 0 0 0 -78.11 13.38c-18.54 4.9-39.59 10.59-65.45 23.22-17.54 8.56-32.24 15.74-48.55 30.26-14.08 12.52-10.14 13.42-38.7 45-3.48 3.85-7.82 8.57-11.26 16.19s-2.56 10.42-6.34 26.74c-3.65 15.79-5 15.41-4.92 21.11.13 13.44 7.6 23.36 9.82 26.1z" fill="#d67828"/><path d="m189.62 219.49c1.93 2.69 9.79.87 14.78-2.82 2.42-1.79 6.7-5.89 5.63-8.44-1.23-2.92-9.39-3.59-14.78 0-4.35 2.9-7.34 8.86-5.63 11.26z" fill="#fcb555"/><path d="m317.69 253.26c1.25 3.76 11.49 4.93 19 1.41 5.66-2.65 11.21-8.65 9.85-12-1.49-3.64-11.25-3.81-18.29-.7-5.48 2.46-11.68 7.91-10.56 11.29z" fill="#fcb555"/><path d="m314.88 171.64c1.85-3.34-2.2-9.7-7-12.67-6.35-3.9-15.95-3.13-17.59.7-1.48 3.45 3.51 9.29 8.44 12 5.6 3.03 14.15 3.57 16.15-.03z" fill="#fcb555"/><path d="m409.17 167.41c-2 2.74.78 8.32 4.22 11.26 4.1 3.51 11.12 4.93 13.37 2.11s-.34-8.81-4.22-12c-4.2-3.36-11.27-4.29-13.37-1.37z" fill="#fcb555"/><path d="m482.36 246.23c0 3.13 7.16 5.87 12.66 6.33 6.35.53 14.41-1.64 14.78-4.92s-6.41-7.21-12.67-7.75c-6.98-.59-14.8 3.11-14.77 6.34z" fill="#fcb555"/><path d="m398.62 286.34c-5.15 3-9.37 9.31-7.74 12s10 1.55 15.48-2.11c4-2.69 8.4-7.9 7-10.56-1.43-2.87-9.31-2.51-14.74.67z" fill="#fcb555"/><path d="m530.91 161.08c-6.63.53-13.75 4.41-13.37 7s8.69 4.38 15.48 2.81c4.5-1 10.16-3.94 9.85-6.33s-6.82-3.89-11.96-3.48z" fill="#fcb555"/><path d="m575.24 278.6c-.92 3 5.17 8.24 11.26 9.85 4.82 1.27 11.64.81 12.67-2.11s-3.55-7.19-7.74-9.15c-6.43-2.99-15.22-1.78-16.19 1.41z" fill="#fcb555"/><path d="m616.06 232.86c1.61 3 10.83 2.15 16.89-2.11 3.5-2.47 7.61-7.25 6.33-9.86-1.39-2.82-8.84-2.54-14.07 0-5.75 2.79-10.66 9.19-9.15 11.97z" fill="#fcb555"/><g fill="#010101"><path d="m690.65 494.81c3.28 1.87 6.3 2.19 6.91 3.74 2.42 6.12-.81 26.34-2.45 30.8.7 4.69-1.71 15.07-3.82 20.47s-1.81 8.61-7.44 13.07c-9.39 11.73-25.57 18-29.09 19.92s-14.76 6.1-20.88 9.19-27.88 12.16-41.28 17.32-44.1 10.79-57.7 14.77-50 8.68-59.35 9.86-43.16 2.11-50.43 1.87-46.91 1.41-58.17 2.35-52.07 2.69-69.31 0-52.43-8.09-70.72-14.43-46.58-8.45-77.76-20.76c-28.5-11.24-46.56-29.3-56.3-48.54-6.32-12.44-3.86-32.81-3.86-44.07 0-1.87.67-5.82 2.39-8 1.93-2.46 6.33-3.63 6.33-3.63l-6.57-3.52a20.22 20.22 0 0 0 -8.79 16.3c-.35 11.26-2.11 35.54 5.63 51.37s29.9 35.89 61.22 47.85 59.46 14.43 77.76 20.76 53.48 11.73 70.72 14.42 58.05.94 69.31 0 50.9-2.58 58.17-2.34 41.05-.71 50.43-1.88 45.74-5.86 59.35-9.85 44.33-9.62 57.7-14.78 35.19-14.31 41.28-17.35 17.36-7.28 20.88-9.15 24.86-10.32 34.25-22.05c5.63-4.46 7.5-9.38 9.61-14.78s5.16-20.41 4.46-25.1c1.64-4.45 4.1-24.07 2.58-30.73-1.82-8-3.22-7-8.85-8z"/><path d="m101.42 527.94a84.47 84.47 0 0 0 0 15.48c.71 5.63 1.65 7.27 2.12 9.38s-.24 3.05.93 6.57 2.12 7.27 5.87 6.57 2.34-3.75 1.87-6.1-2.28-5.54-4.1-16.65c-1.15-7-.47-13.73-.59-15.25s-.7-2.35-3-2.7-3.1 2.7-3.1 2.7z"/><path d="m126.29 576.61c3.22-.36 3-3.52 2.46-4.93a54.48 54.48 0 0 1 -2.46-9.26 33 33 0 0 1 -2.11-6.33c-.71-2.7-1.64-7.16-1.53-8.33s-.82-2-2.46-2.14-2.7 1.9-2.7 3.43.82 10.91 2.82 15.25c.94 2.58.94 7.85 2 9.85s1.87 2.7 3.98 2.46z"/><path d="m336.22 594.09c-2.22-.12-2.69 1.87-2.69 3.16s.7 9.27 1.34 10.79a10.32 10.32 0 0 1 .65 4.93c-.12 1.87-.12 3.4 2.81 3.28s2.82-1.41 2.82-3a14.08 14.08 0 0 0 -.94-5.74c-.82-1.65-1.29-10.09-1.17-11s-.59-2.31-2.82-2.42z"/><path d="m587.79 558.67c-2.47 0-2.34 1.52-2.46 2.69s.23 12.44 0 14.43a54.22 54.22 0 0 1 -1.76 8.56c-.59 1.41-1.76 5.28 2.11 5.4s3.4-2.35 3.75-3.4 2.23-7.86 2-13-.24-11.26-.59-12.44-.7-2.24-3.05-2.24z"/><path d="m596.12 552.69c-2.47.79-1.29 4.33-1.41 5.27s.95 12.79.6 16.25a28.77 28.77 0 0 1 -.82 5.33c-.25.82-.83 4.34 2.57 4.46s3.87-3 3.87-3.87.94-13.72 0-18.06-1.41-6.57-2.23-7.74-1.78-1.9-2.58-1.64z"/><path d="m673.67 555.41c2.74 2.44 5.19-1.93 5.54-2.81a43.79 43.79 0 0 0 2.73-9.5 12.39 12.39 0 0 0 0-8.53c-1.41-3.26-2.46-2.82-3.08-2.91-.67.79-1 4.66-1.23 6.16s-2.29 9.24-3.43 11.17-3.69 3.61-.53 6.42z"/><path d="m87.35 429.89a11.76 11.76 0 0 0 -4 7.74c-.23 4.69-1.17 12.55-.93 16.3s1 10.56 2 13.61 2.23 11.14 6.45 16.07 5.31 7.16 11.29 8.92c6.84 2 11.49 5.16 18.18 7.28s10.67 4.69 14.89 6.8 8.91 5.16 14.78 7.5 22.05 6.81 29.55 8.68a153.81 153.81 0 0 1 25.34 9.62c6.09 3.05 14.54 5.63 24.86 7.74s26.74 4.22 32.6 5.16a165.31 165.31 0 0 1 19.24 4.69c5.39 1.64 19.23 2.35 25.57 4.22s23.66 2.1 37.26 1.4 48.58-1.12 58.66-1.82 24.38-6.16 34.7-7.1 41.52-5.16 48.55-5.63 28.15-2.11 35.89-3.75 12.2-4 20.41-5.66 38.52-1.14 55.18-4.19 26.92-6.1 37.47-12.2 26-13.37 31.2-14.07c3.28-1.41 5.16-5.68 13.6-8.26a8.63 8.63 0 0 0 5.63-3c2.35-2.82 2.58-4 6.81-6.8s4.22-.94 7.5-6.34 3.75-4 4-10.32-.4-6.56 2.26-8.21 6.18 5.4 6.18 5.4 0 1.64-1.87 10.79-23 24.38-25.6 25.54c-8.45 2.58-11.49 7.27-14.78 8.67-7.81 2.58-21.11 7.28-31.66 13.37s-23 10.56-39.65 13.61-45.74 1.88-53.95 3.52-13.6 4.69-21.34 6.33-29.32 3.28-36.36 3.75-40.34 4.93-50.66 5.87-20.88 5.16-31 5.86-49.49 2.35-63.09 3-31.9-.47-38.24-2.34-20.17-2.58-25.57-4.23a165.14 165.14 0 0 0 -19.23-4.69c-5.86-.94-22.28-3-32.6-5.16s-18.77-4.69-24.87-7.74a153.69 153.69 0 0 0 -25.33-9.62c-7.51-1.87-23.69-6.33-29.56-8.67s-10.55-5.4-14.77-7.51-8.21-4.69-14.9-6.8-11.14-6.1-18.18-7.27-11.26-7.28-15.48-12.2-3.75-9.38-4.69-12.43-3.28-8.92-3.52-12.67-.23-14.31 0-19 2.58-11.38 2.58-11.38z"/><path d="m96.21 472.64c2.39-1.11 1.58-3.69 1.05-4.75s-.7.7-1.05-1.23 1.17-4.75.76-5.45-.24-3.52-2.52-3.87-5.28 4.74-4.75 10.37 4.22 5.99 6.51 4.93z"/><path d="m102.89 479c2.39.63 2.82-1.23 2.64-2.28a17.44 17.44 0 0 1 0-5.11c.31-.87-1.62-1.4-2.68-1.23a2.75 2.75 0 0 0 -2.64 2.76c-.13 2.14-.66 4.95 2.68 5.86z"/><path d="m110.46 441.5c-1.88 2.14.35 4.4 3.34 5.81s3.69 2.64 5.28 4 3 3.87 6.33 4.58 9.5 1.05 12.49 2.28 4.57 1.24 6.16 2.47a18.46 18.46 0 0 0 7.74 2.81c2.28.18 10 1.59 12.66 2.82a9.35 9.35 0 0 1 4 3.16c.53.71 5.28 5 8.27 5.24s7.39-1.26 5.8-4.39-2.81-3.31-5.27-3.66-4.4-3.87-5.11-4.58a9.28 9.28 0 0 0 -4.15-1.54c-1.41-.17-3-2.66-4.22-2.38a17.26 17.26 0 0 1 -6.16-.8 37.46 37.46 0 0 0 -6.51-1.22c-1.76-.17-5.63-3.51-8.62-4.39a93.45 93.45 0 0 0 -13.19-2.29c-2.64-.18-4-2.82-5.28-3.87s-4.22-3.52-5.8-4.05-5.3-2.81-7.76 0z"/><path d="m223.05 477.39c-1.87 3 1.23 4.4 2.81 4.57s2.29 1.06 3.52 1.59a13.55 13.55 0 0 0 8.8 1.76c4.75-.71 7.38 1.05 9.67 1.93s6.86 1.41 7.92-2.29-2.64-4.39-4.75-4.74-3.83-2.25-8.62-2.82c-3-.35-3.52.88-5.81.88s-4.22-1.94-8.09-2.46-4.05-.71-5.45 1.58z"/><path d="m287.26 491.82c4-.75 4.22-3.87 4.4-5.11s-.18-3.87-3.17-3.87a5 5 0 0 0 -5.1 5c.17 2.57 2.34 4.26 3.87 3.98z"/><path d="m313.12 489.18s-3.87.7-3.34 4.57 2.28 4.05 4.22 4.05a3.56 3.56 0 0 0 3.34-4.31 4.55 4.55 0 0 0 -4.22-4.31z"/><path d="m527.57 527.7c2 3.07 7.21-1.58 8.09-3.87s3.34-6.86 2.46-10.2-2.46-2.64-3.51-2.64-2.34.53-2.64 4.75c-.18 2.46-1.76 4.58-2.64 6.16s-4.05 2.29-1.76 5.8z"/><path d="m542.52 480a3.3 3.3 0 0 0 1.76-4c-.53-2.28-2.46-1.93-4.22-1.4s-3.52 1.58-2.82 3.51 4.12 2.66 5.28 1.89z"/><path d="m557.12 475.46c.71 2.25 3.17 1.58 4.58 1.05s3.16-.23 4.92-.35a18.5 18.5 0 0 0 6.14-1.26c2.4-1.07 4.86-2.26 6-2.79 2.29-1.05 4-.35 6.86-1.93s1.94-4.58 0-5.1-8.79.35-10.38 1.23-4.92 3-8.09 3.69-4.92.15-7 .95-3.91 1.69-3.03 4.51z"/><path d="m605.15 501c-3.52.14-2.81 1.41-2.81 3s-.23 7-1 8.27-2.88 2.11-1.48 4.23 5.63 1.58 6.69 0 1.93-5.81 1.76-8.27 1.24-7.44-3.16-7.23z"/><path d="m624.15 504.31c2.63 2.89 7.21-1.07 8.27-3.35s4.4-8.26 0-11.61c-2.67-2-2.62 1.87-3 3a11.26 11.26 0 0 1 -3.13 5.11c-1.88 1.45-5.66 2.98-2.14 6.85z"/><path d="m662.15 481.08c1.81 2.08 7.39-1.93 6-8.62s-4.68-7.24-6-6.68c-2.46 1.05-.83 4.05-.48 5.19a5.27 5.27 0 0 1 -.39 4.23c-.88 1.62-2.21 2.37.87 5.88z"/><path d="m684.67 478.45c2 2.87 7.74-1.11 8.44-4.87s.35-11-4.22-11.14-3.7 3.94-2.82 5.63a3.92 3.92 0 0 1 -.17 3.87c-.9 1.58-4.22 2.28-1.23 6.51z"/><path d="m624.33 454.52c1.15 1.92 3.17.53 4.49 0s3.8-1.93 5.81-2.29 8.7.36 10.28 0 4.57-3.87 6-4.39 8.16-2.47 9.27-3.52 2.34-3 .76-4.4-5.64-1.08-12.49 1.58c-3.17 1.23-3.82 3.34-5.43 4.05s-5.66-.53-9.17.35-11.11 5.98-9.52 8.62z"/><path d="m152.34 429.89c-5.41-.45-10.8-1.88-16.43-3.05s-12.29.51-19.32-.43-13.81-5.67-21.73-5.2-7.27 1.88-11.5 2.58c-2.88.48-5.8.47-7.91 1.41s-8.51 2.35-13.67 4.69c0-9.38 6.29-22.36 11.58-28.8 3.89-4.74 14.69-12.48 14.69-12.48l-1.4-5.87s-13.37 6.81-17.83 13.84-13.52 20.63-13.6 35.42c0 6.57 6.8 5.63 8.91 4.69a53.48 53.48 0 0 1 6.8-2.81c1.88-.47 8.31-2.89 11-1.64s3.92-3.05 11.84-3.52 12.62 4 19.66 4.92 17.59-.93 23.22.24 15.95 3.44 22.75 3.48z"/><path d="m239.21 452.17s4.59-1.35 7.64-.17a116.48 116.48 0 0 0 17.48 4.76 175.77 175.77 0 0 1 19.05 4.29c6.33 1.88 28.16 9.88 38.78 17.85s37.28 20.89 40.1 22.77c1.41.94 3.25 3.89 8 7.73s10.21 7.45 11.73 9.21 4.94 3.32 8 6.28 4.3 7.33 7.5 9c5.87-1.23 13.84-9.67 16.42-12s9.09-7.79 14.03-9.89 15.95-7.52 22.52-9.85 39.17-12.68 46.44-16.15 25.1-16.15 32.84-20.33 24-9.29 31.13-11.43a54.42 54.42 0 0 0 14.49-6.38l12.06 4.36c-4.24 2.82-17.34 7.28-24.61 8.92s-23.69 8.91-31.43 13.09-24.63 15.76-31.9 19.28-38.23 13.6-44.8 15.94-21.82 9.63-26.74 11.74-12.2 9.14-14.78 11.49-9.38 9.15-15.48 8.91-13.84-11.72-16.89-15.24c-2-2.35-10.87-7.87-16.65-12.44-2.9-2.29-4.22-5-5.16-5.62-2.82-1.88-31-16.19-41.59-24.16s-33.94-15-40.28-16.89-12.19-2.35-18.76-3.52-9.62-2.82-12.67-4-9.85-1.17-9.85-1.17z"/><path d="m649.39 431.91s11.33.39 13.81 1.59 6.46 1.59 8.71 2.64a25.31 25.31 0 0 0 7.16 1.87c2.41.3 5.28.3 7.52.9s18.78 8.46 22.53 11.92 8.62 6.17 12.88 10.73c3-2 3.44-8.06 2.47-13.55-1.12-6.25-.62-5.35-4.4-15.13-1.8-4.65-.17-4.94-2.11-12.49 0 0-3.7-7.74-9-7.74l7.57-4.75c5.1 1.06 9.11 11.13 9.11 11.13 2.28 8.85.21 8.22 2.32 13.68 4.44 11.46 4.23 17.94 3.7 24.45s-3.7 12.49-8.45 13-9.67-5.46-14.07-9.5-23-14.43-25.67-15.13-6.35-.53-8.81-1.06a43.28 43.28 0 0 1 -8.44-2.81c-2.64-1.23-11.69-2.12-14.61-3.52s-10.46.26-10.46.26z"/><path d="m99.72 349.67s-7-4.63-7.91-5.1-3.17-2.37-5.63-2.41-10 6-11.61 10.09c-.78 2-2 7.51-2.7 9.38-.26.71-3 6.44-3.69 8.51-.53 1.64-.78 3.88.93 4a49.7 49.7 0 0 0 7-.41c2.11-.23 10.64 1.57 11.47 3.19s4.89 9 6.06 14.11 5.64 14.25 9.5 13.49c4.46-.88 10.49-6 11.85-6.63 2.7-1.29 16.18-1.41 19.59.24 4.35 2.1 12.9 9.32 16.18 15.65s5.22 11.44 6.39 13.08 5.49 4.94 6.89 6.59 5 7.67 16 8.36c8.39.53 12-7.56 14.13-9 1.38-.89 3.43-2.81 5.55-4.22s4.62-1.84 6.38-2.54a44.2 44.2 0 0 0 8.9-5.25c1.43-1.2 3.11-2.4 4.81-2.4 0 0 3.07-.3 2.71 4-.15 1.69-5.17 3-7.05 4.69s-7.21 3.81-9.09 4 .65.88-1.46 2.29-6.1 5.86-7.51 6.72-7.5 9.7-18.53 9-18.06-8.21-19.47-9.86-6.16-4.69-7.33-6.33-4.28-9.26-7.56-15.6-9-12.55-13.72-13.72c-2.67-.67-12.44 0-13.37 1.17s-10.79 6.34-15.72 6.34-12.43-8.68-13.61-13.84a89.66 89.66 0 0 0 -5.16-14.55c-.82-1.61-8.67-2.11-10.79-1.87s-6.56.94-8.91-1.88a11.24 11.24 0 0 1 -2.34-8.68c.23-2.81 3.28-8.91 4-10.79a21.52 21.52 0 0 0 1.41-5.63c.23-2.11 2.81-7 3.75-8.68s7-7.27 11.26-9.14a14.08 14.08 0 0 1 10.09 0c.94.46 7.74 5.39 7.74 5.39"/><path d="m205 429.89s6.26.74 7.84 5.45 6.14 17.41 7.72 18.46 1.87 3.63 6.71 3.63c5.63 0 6.9-3.77 10-7.22 4.18-4.62 3.66-5.46 8.09-10.08 4.75-5 20.76-6.37 26.21-2.67s15 10.55 20.09 12.13 5.39.76 9.79-1.52 12.25-8.15 13.66-10.61a9.66 9.66 0 0 1 5.89-4.14c1.59-.35 6.51-.79 8.63.09s8.71 3.37 15 3.2 15.31-.81 22.09-4.25c2.27-1.15 4.82-7.75 8.17-11.79s6.66-8.56 9.12-9.79 4.25-.57 4.42-2.86l7.3.68c-.17 2.29-1.76 4-4.22 5.28s-6.69 6.69-10 10.73-4.75 10.56-10.38 14.08c-8.74 5.46-18.82 5.27-25.15 5.45a51.8 51.8 0 0 1 -16.36-2.64 11.72 11.72 0 0 0 -6.51-.17c-1.59.35-1.76.7-3.17 3.16s-11.79 8.8-16.19 11.09a20 20 0 0 1 -15 1.76c-5.1-1.59-14.78-9-20.23-12.67s-15.48-2.82-19.35 2.29-4.88 5.05-7 8.26c-3.25 4.84-8.44 10.21-15.83 9.68s-9.85-4.75-11.44-5.81-6.86-14.25-8.44-19-6.69-5-6.69-5z"/><path d="m346.08 437.53s4.23 6.24 5.55 10.28a15.72 15.72 0 0 0 10.57 11.19c3.34 1.16 10.84-3.93 14.42-5.72s11.95-5.64 17.33-5.46 11.67 2.72 14.35 4.06a61 61 0 0 0 29.9 8.46c10 .1 10.88-2.8 12.9-4.37s19.83-23.65 23.69-24c10.91-.88 20.64 16.66 24.45 19.35s5.35 3.89 20.59 4.15 20.26-4.83 27.44-12.77a15.67 15.67 0 0 1 8.62-4.92c1.4-.17 7.93 2.5 11.79 2.81 9.44.76 18.62 5 19.74 5.28 2.38.62 4.85 1.91 5.42 1.91s5.73 2.78 8.09 1.61a50.46 50.46 0 0 0 9.15-6c2-1.91 8.09-5.1 10.22-5.78s9.93-.67 14.64-1.9 6.68-5 10.26-7.67c4-3 23.4-14 27-15.62 2.9-1.34 5.81-3.41 8.62-3.75s4.6-.93 6.51-.82 5.81-1.23 8.62-1.23 6.54 1.35 10.79.12c4.45-1.29 10.2-5.52 20-5.38a38.41 38.41 0 0 1 12.61 2.8 24.65 24.65 0 0 0 12.78 1.64c-1.17-1.77-5.48-4.81-9.14-7.72-3.05-2.42-5.44-3.35-12.67-6.47-4.37-1.89-8.09-.82-12.7-6.25-2.68-3.16-2.29-5.06-4-7.36-2.47-3.4-8.33-8.18-10.44-8.79-2.61-.76-7.63 1.4-7.63 1.4l.94-7.5c1.53-.94 4.22-2.35 8.92-1.29s11.14 8.21 14.3 11.26 1.53 5.51 4.81 8.32 10.09 3.05 17.36 6.92a70.57 70.57 0 0 1 16.65 12.44c3.29 3.4 2.23 5.86 1.3 8.27s-1.3 3.92-8.68 4.39a38.26 38.26 0 0 1 -14.66-2.23c-1.18-.35-7-2.11-8.68-2.11s-8.33-.58-12.08 2.11a19.26 19.26 0 0 1 -11 3.4c-2.93 0-6.21-.35-8.21-.46s-5.16.82-8.09 1.17-3.75-.24-7.62 1.17-12.2 7.27-14.19 8-16 8.32-18.89 12-6.45 5.39-11.37 6.68-12.32 1.41-14.55 2.12a21.1 21.1 0 0 0 -7.15 4.57c-2.11 2-5.63 3.4-8.09 4.63s-5.51.53-6.1.53a17.3 17.3 0 0 0 -3.05.51c-1.17.28-6.33 1-8.44-.51-3-2.18-12.11-5.42-17.6-6.69-1.19-.27-4.79-.36-5.5-.49-4-.7-7.52-2.44-9-2.26s-1.88.35-5.22 4c-7.51 8.31-17.32 13.83-33.25 13.55s-20.82-3.22-24.8-6-10.61-15.47-15.71-16.19-19.59 20.08-22.75 22.28c-2.19 1.54-3 3.75-16.42 4.69-17.09 1.2-28.85-6.57-31.65-8s-8.46-4.23-14.09-4.42-10.32 2.77-14.08 4.65-11.26 7.27-19.93 4.79-11-9-12.44-13.23-6.09-9.86-6.09-9.86z"/><path d="m464.76 447.3a81.77 81.77 0 0 0 7.28 3.94c1.87.7 4.33.82 6 2a42.27 42.27 0 0 0 9.73 4.57c4.22 1.41 12.9 4 18.06 3.05s-12.43-8.68-12.43-8.68a38.26 38.26 0 0 1 -8.68-2.58c-1.67-.85-3.52-2.81-6.1-3.28s-4.31-.58-5.51-1.17a18 18 0 0 1 -3.17-2.58z"/><path d="m411.62 398c.6.7 1.31 4.57 6.23 9.91s11.26 11.44 13.37 12.61 4.09 4.63 7.74 2.34c1.88-1.17.71-4.45-1.87-6.09s-13.37-10.09-16.42-16.66-9.05-2.11-9.05-2.11z"/><path d="m474.38 437.4s-7.38-1.4-10.09-3.76c-4.45-3.75-7.07-1.43-10.32-5.86-1.74-2.38-1.13-5 1.65-5.28 1.15-.11 2.25.4 4.13 1.12 1.51.58 3.65 1.36 5.45 2.22 3.87 1.85 4.32 2.93 5.46 3.44 5.64 2.49 10.55 2.39 11.93 8.12 1.58 6.6-8.21 0-8.21 0z"/><path d="m248.38 441.15s-4.66 1.92-4 .62 6-6.94 7.29-8c2.47-2 7-3.63 7.93-4.69a28.86 28.86 0 0 1 6.51-5.19c1.93-.88 4.4-2.46 5.63 0s-.88 3.69-2.64 4.93-7.74 5.33-8.62 7.59-12.1 4.74-12.1 4.74z"/><path d="m186.81 445.9c0 .53 1.93 1.23 8.09.88s7.39-1.41 10.91-1.76a23.69 23.69 0 0 1 5.63 0l-1.94-4.89a20.73 20.73 0 0 0 -4.75 0c-1.94.32-3.17 1.72-5.63 1.9s-2.64.7-7 .18a4.7 4.7 0 0 0 -5.31 3.69z"/><path d="m134.38 381.69-10.2 2.64s-2.47 1.76-1.23 3.34 2.46 1.23 3.87.88 1.58-1.41 4.22-1.94 5.63-1.05 6.33-2.46-2.99-2.46-2.99-2.46z"/><path d="m85.74 378.87c.53.18 8.18-.88 10.82-.52s20.58-2.64 22.69-4.4-4.22-2.11-4.22-2.11-5.1-1.59-7.74-1.06-5.54 1.39-6.76 1.53c-1.92.23-6.79.23-9.43.58s-10.55 1.11-12.31 2.47 6.95 3.51 6.95 3.51z"/><path d="m116.79 335.12s-8.71 2.15-11.52 4.87c-.62 7.75.33 13.9.33 17.77 2.74 3.73 48.17 36.92 138.82 47.8 59.41 7.13 94.72 5.77 107.29 4.07s41.37-4.83 46.66-9.51c1.46-1.3.55-8 .95-11.27.44-3.56.93-2.78.93-2.78s76.75 37.61 122.92 38.93 99.91-4.24 131.59-17.14c21.69-8.83 33.66-23.75 35.19-27.72.81-2.13 2.16-25.34.13-28.4l7.25-.7c2.11 3.16 1.06 32 0 34.13s-14.63 19-37.11 28.14c-32.83 13.37-88.14 21.12-136 19.71s-117.15-36.55-117.15-36.55 0 6.64-3.19 9.46c-5.48 4.85-37.64 9.5-50.66 11.25s-49.61 3.17-111.18-4.22c-94-11.27-138.68-46.12-142.41-50.49-1.85-2.15-1.46-24.8.47-27.39 2.68-2.24 9.66-3.39 9.66-3.39z"/><path d="m104.71 337.24s1.17 4.46 2.58 5.39 4 2.58 5.63 3.52 10.08 6.1 13.37 7 12.43 7.27 29.55 12.43 18.68 6.11 23.69 6.8c3.39.47 6.22.3 9.21 1.35s9.14 5.12 15.48 5.12c3.17 0 5.46.35 6.34-1.5s-.15-2.35-7.39-3.79c-4.4-.88-7.39-3.7-12.85-5.63s-4.09-.46-13.37-2.82a192.3 192.3 0 0 1 -19.19-5.8c-3.32-1.24-23.63-9.86-27.73-11.26s-10.6-5.63-11.83-6.34-4.81-2.46-6.34-3.51a7.46 7.46 0 0 1 -2.28-3.12z"/><path d="m361.85 387.32a46.69 46.69 0 0 1 -15.85 4.82c-8.45.81-12.86 3.09-22 2-4.58-.53-2.82-.88-6-1.23s-47-2.82-49.43-3.17-3.17-1.23-3-2.46.7-2.47 5.28-1.76 42.39 1.23 45.74 1.23 4.57.88 6.68 1.06 9.33 1 14.78-2.5 23.8 2.01 23.8 2.01z"/><path d="m451.39 391.89s15.38 6.4 25.51 7.92a37.19 37.19 0 0 1 9.85 2.46c2.29.88 19.53 3.34 26.57 4.75s12.84 2.11 16.18 1.76 17.42 2.11 27.27 2.29 24.28 1.4 26 .88 4.4-4.58 0-5.46-21.64-.17-25.86-.88-24.24-2.61-26.7-2.61-8-1-14.08-2.11c-7.2-1.33-19.35-2.28-23.75-3.34s-17.41-5.63-29.2-5.63z"/><path d="m688.89 355.83s-6 11.08-13 17.59-11.08 8.44-15.48 10.38-17.94 4.75-19.26 6.16-2.78 4 2.72 4c1.59 0 3.4-.82 5.4-1.29s9.73-2.81 13.84-4.22 12.19-6.11 16.77-11.61 13.84-17 13.84-17z"/><path d="m612.3 381.45a8.6 8.6 0 0 0 2.7 4.46c2 1.64 6.69 1.64 8.09 1.53a47.61 47.61 0 0 0 7.28-1.88 20.48 20.48 0 0 1 5.86-1.64c2.11-.12 15.95-4.62 18.65-6.53s5.51-2.62 7.39-5.44a9.43 9.43 0 0 0 1.87-6.92c-.23-2.11-7.15 2.47-7.15 2.47s2.7.94-2.82 3.87a76.07 76.07 0 0 1 -17.94 7c-1.61.36-4.81 1.18-6.45 1.65s-5.28 2.42-7.62 2.42-2.94.27-5-2-4.86 1.01-4.86 1.01z"/><path d="m541.35 390.37c.12.35-.59 2.11.47 3.16s.94 1.06 4.34 1.76 8.91 1.41 11.14 1.76 10.44.47 12.08.82a97.8 97.8 0 0 0 11.61.82 71.93 71.93 0 0 0 7.51-.58c1.29-.12 4.1-1.18 5.51-1.41a27 27 0 0 0 6.1-1.29c1.87-.82 4-4.69 4.34-6s.35-6.1 0-6.69-6.1.82-6.1.82 1.64 6.55-1.17 7.09-2.94.54-4.46.77-3.29 1.06-4.93 1.18-5.26.4-8.08.32c-2.13-.05-7.73-.38-9.16-.44-1.64-.07-10.44-.47-12.66-.59s-9-.7-9-.7-2.34-.12-2-1.64-5.54.84-5.54.84z"/><path d="m721.61 261c-2.64-5.8-4.92-12.67-6-14.95s-5.63-13-8.26-16-4.93-6-6.17-7.39-3.91-6.19-6.16-9c-1.35-1.66-8.26-7-10.56-8.63s-3.51-3.52-5.63-5.63-15.27-13.52-19.83-16.15-10.72-7.56-12.83-9-23-13.74-33.61-17.54c0 0-3-1.74-4.57-2.53s-4.27-1.63-5.63-3-14.08-6.33-16.37-6.69-33.99-12.22-54.91-16.49a163.23 163.23 0 0 1 -16.71-4.58c-3-.88-23.22-7-29-7.92s-50.13-7.21-60.52-6.85-21.28 2.63-28.48 2.11-32.2.35-38.71.18-38.53 1.58-60.51 6.15-38 8.09-44 9.33-17.06 2.28-24.8 4.74-11.79 3.17-23 8.27-19.88 11.19-22 12.07-7.22 3.35-8.62 4.58-15.13 11-18.82 13.27-15.65 9-19.17 12.3-20.66 21.65-26.99 29.35-18.65 23.22-21.81 30.8-3.7 9.67-4 11.42-4.59 18.65-5.63 21.47a45 45 0 0 0 -2.86 14.31c-.18 6.15 1 11.08 2.28 13.19a81.56 81.56 0 0 1 4.27 9.59 35.94 35.94 0 0 0 4.56 6.58c2.81 3.16 17.38 12.38 18.18 13.37s10.47 6.33 15 7.74 19.7 5.27 21.94 6.33 17.73 4.57 20.19 5.63a193.21 193.21 0 0 0 21.1 5.59 205.56 205.56 0 0 1 20.42 4.47c3.52 1.2 23.58 6.12 28.15 6.83s31.55 4.33 35.3 5.28 66.62 14.31 75.77 14.53 26 3.52 32.37 3.76 30.72 0 30.72 0 22.87.35 29.21 1.06 48.73 2.46 59.81 1.05 45.74-1.4 50-2.11 15.67-2.46 21.47-2.46 29.9-2.11 34.83-3.52a143.23 143.23 0 0 1 15.13-3.17c3.26-.49 17.24-5.61 20.57-6.77s30.09-9.58 32.74-10.65 29-9.32 31.67-11.08 7-4.92 9.14-5.81 11.78-6.33 14.41-10.72 3.35-3.69 3.89-17.76-4.31-53.15-6.96-58.95zm-.72 55.11c-.5 13.34 0 13.2-2.56 17.37s-11.19 8.54-13.26 9.38c-1.22.5-5.86 3.37-7.1 3.61a21.76 21.76 0 0 0 -5.9 2.18c-2.62 1.6-24.63 8.88-27.2 9.88s-28.55 9-31.81 10.09-13.82 5.21-17 5.67-11.71 2.77-16.52 4.11-28.81 2.93-34.48 2.93-19.69 1.56-23.81 2.22-37.21 1.34-48 2.67-52.49-.94-58.68-1.61-29-.93-29-.93-23.73.1-29.91-.13-22.84-2.59-31.77-2.8-70.35-13.67-74-14.55-30.36-4.62-34.83-5.28-24.59-5.67-28-6.8a200 200 0 0 0 -19.7-4.46c-3.11-.37-18.82-4-21.22-5s-19.38-4.87-21.58-5.87-13.33-4.06-17.72-5.39-13.87-5.64-14.65-6.57-15.65-9.19-18.39-12.19a34.68 34.68 0 0 1 -4.48-6.22 77.76 77.76 0 0 0 -4.12-9.12 17 17 0 0 1 -2.24-11.34 72.76 72.76 0 0 1 3.39-13.96c1-2.67 5.29-18.74 5.63-20.4s1-3.4 4-10.56 15.1-21.87 21.28-29.2 21.73-23.82 25.16-27 15.86-10.15 19.47-12.32 16-11 17.36-12.2a45.33 45.33 0 0 1 8.1-4.33c2-.83 10.69-6.66 21.68-11.49a165.38 165.38 0 0 1 22.52-8.33c7.57-2.34 18.33-3.52 24.17-4.69s22.49-4.58 44-8.92 52.47-6.74 58.83-6.57 30.76-.66 37.81-.17 17.71-1.66 27.84-2 53.4 6.26 59.07 7.11 25.11 6.67 28 7.5 10.63 3.42 18.18 4.93c20.38 4 51.25 15.84 53.48 16.18s13.23 4.85 14.9 5.86c1.31.8 6.92 3.29 6.92 3.29 1.1.4 3.24 2.31 5.87 3.22 4.21 1.47 29 15 31.07 16.37s7.49 5.7 12 8.21 16.47 13.59 18.54 15.59 3.74 4.25 6 5.76 8.71 7.38 10.43 8.55 4.32 6.41 5.52 7.74 4 5.14 6.57 8 6.12 11.67 7.15 13.84 3.17 8.57 5.74 14.07 7.77 40.74 7.25 54.08z"/><path d="m278.52 310c-4.22.23-11.49-1.88-16.42-3s-17.12-1.64-29.32-3.52-16.1-2.81-22-4-19-4.56-20.69-5.5-6.81-2.58-10.56-3.75-17.12-7.74-19.7-9.39-6.34-1.64-8.68-2.81-2.58-1.17-6.8-3.52-5.08-2.56-7-5.61a3.52 3.52 0 0 0 -4.1-2.26c-3.05.71-1.65 4.7-1.65 4.7a21.13 21.13 0 0 0 8.45 7.74c4.22 2.34 4.45 2.34 6.8 3.52s6.1 1.17 8.68 2.81 15.95 8.21 19.7 9.38 8.92 2.82 10.56 3.76 15.48 5.39 21.34 6.56 8.45 2.35 20.64 4.23 25.34 2.58 30.26 3.75 14.55 3.75 18.77 3.52c0 0 5.48 1.73 5.63-3.05.2-3.77-3.91-3.56-3.91-3.56z"/><path d="m436.72 330.56c1.77.54 22.53-.42 26.46-.12 2.3.17 9.79.82 13.31 0s11.14-1.06 13-1.06 8.8.12 11.73-.94 6.8-2.46 7.39-3.52 1.29-.82.47-2.93-9.5.71-11.15.94a39.9 39.9 0 0 1 -7.5 0c-3.17-.23-10.32 1.06-14.54 1.29s-8.45.94-12.32.59-24.16-.12-25.57.11-3.16.71-3.51 2.47a2.79 2.79 0 0 0 2.23 3.17z"/><path d="m568.38 322.93s10.56-2.11 14.6-2.64 12.67-3.69 15.31-3.69 23.4-4.58 25.86-5.81 20.41-7.74 25.68-10.55 15.66-7 19-8.8 19.71-11.08 21.47-12.67 2.28-3.16 1.23-4.75-3.34-1.4-6 0-16.53 9.5-19.53 11.09-16.19 7.39-19.53 8.79-20.76 9.15-24.63 10.56-20.05 5.1-24.1 6-12.31 3.17-16 3.69-11.61 2.47-13.37 2.64-4.4.71-4.4 2.82 1.77 2.79 4.41 3.32z"/><path d="m211.44 204.25c-4.47-5.87-13.38-2.12-18.06.92s-10.33 11.5-6.81 17.13c2.91 4.65 15.86.24 20.36-3.28s8.97-8.92 4.51-14.77zm-10.39 10.52c-1.58.86-8.61 3.77-9.78 1.9s4.22-5.39 5.63-6.57 9.37-3.52 10-1.41-2.81 4.41-5.85 6.08z"/><path d="m319.56 167.67c-.22-4.48-4-10.35-12.66-12.46s-16.19-1.8-19 4.38c-1.45 3.18-1.18 9.63 11.5 15.1 3.8 1.63 11.62 1.17 14.37 0s6.03-2.55 5.79-7.02zm-6.09 0c-1.87 3-9.61 2.11-12.43 1.41s-10.24-6.52-8-8.22c2.82-2.11 8.21-1.17 11.5 0s10.8 3.74 8.93 6.79z"/><path d="m345.6 238.25c-2.81-.71-10-1.71-22.28 3.05-4.22 1.63-8.75 9.15-7.5 11.64 1.49 3 2.58 4.79 6.8 5s9.61.48 12.43 0 11.49-4.78 13.6-10-.23-8.94-3.05-9.69zm-10.32 13.34c-2.11 1.14-13.13 2.38-14.07 0 0 0 .24-3.72 2.58-4.9s5.16-.93 8.33-2.11 10.67-3 10.91 0-5.63 5.87-7.75 7.01z"/><path d="m429.82 174.2c-.48-1.86-2.11-5.69-10.33-9.52s-9.59-2.26-12.41 0-.48 13.75 4.92 16.32 11.26 6.1 16.65 1.41c3.04-2.64 1.63-6.35 1.17-8.21zm-5.41 4.94c-1.4 1.64-5.39-.23-9.14-2.11s-6.21-7.57-4-8.21c3.28-.94 7.74 1.31 9.15 2.72s5.4 5.97 3.99 7.6z"/><path d="m415.74 283.76c-1.4-2.59-8.44-3.52-11-3.05s-9.4 3.74-11.74 5.29-7.5 6.44-5.63 13c1.24 4.34 11.5 5.56 21.11-1.08s9.83-9.46 7.26-14.16zm-11.25 9.85c-2.12 1.17-12.19 4.83-12.45 2.12s4.23-6.11 7.28-7.75 11.26-3.51 11.12 0-3.84 4.45-5.95 5.63z"/><path d="m545.45 162.35c-2.11-4.08-8.67-4.08-12-4.32s-16.19.53-18.06 10.59c-.69 3.72 5.39 7.48 13.13 6.77s11.5-2 13.61-3.35 5.43-5.6 3.32-9.69zm-13.22 6.74c-2.59.7-11.3.6-11.17-1.06.24-3 5.63-3.43 8.2-3.67s11-1.17 10.8 1.18-5.25 2.85-7.83 3.55z"/><path d="m510.33 242.71c-1.23-2.28-7.74-5.8-12.84-5.63s-6.86.7-8.1 1.41c0 0-8.61-.35-9.31 6.33-.51 4.73 1.74 6.69 3.85 7.91s10.22 3.52 13 3.35 8.84 1.05 12.52-3.35 2.11-7.73.88-10.02zm-4.92 5.29c-.37 2.11-4.41 2.46-6.87 2.46s-14.58-2-13.72-4.93c.52-1.76 1.41-2.46 4-2.81s12.14.53 13.55 1.41 3.38 1.75 3.04 3.87z"/><path d="m600 280.54a21.82 21.82 0 0 0 -10.37-6.33 49.15 49.15 0 0 0 -13.55 0c-2.26.42-4.56 6.85-1.93 11.42s10.2 7 14.07 7.39 9.67.52 11.78-2.81 2.15-7.04 0-9.67zm-4.92 6.15c-1.75 1.22-4.4.35-7.8 0a14.13 14.13 0 0 1 -7.69-3.22c-2.11-1.64-2-3.48-1-5 .52-.83 1.75-.37 3.86 0s2.48.7 4.87.7 5 2.11 6.39 3 3.18 3.3 1.41 4.52z"/><path d="m642.09 221.6c-.35-3.52-7.2-4-9.85-4.58s-8.27 1.06-10.9 2.82-7.75 8.8-6.34 12.85c1 3 10.56 4.56 18.3 1.74s9.15-9.31 8.79-12.83zm-14.09 8.61c-2.28.54-8.56.65-8.09-.87.52-1.76 4.92-4.93 6.68-6s10.21-.89 10.21 0c.02 5.72-6.5 6.35-8.8 6.87z"/></g></svg>