<svg enable-background="new 0 0 72 72" height="72" viewBox="0 0 72 72" width="72" xmlns="http://www.w3.org/2000/svg" xmlns:xlink="http://www.w3.org/1999/xlink"><clipPath id="a"><path d="m53.079 52.938c-.525 2.023.689 4.088 2.713 4.613 2.021.525 4.088-.688 4.613-2.711.617-2.377-1.963-24.642-2.346-30.249"/></clipPath><clipPath id="b"><path d="m18.921 52.938c.525 2.023-.689 4.088-2.713 4.613-2.021.525-4.088-.688-4.613-2.711-.617-2.377 1.963-24.642 2.344-30.249"/></clipPath><clipPath id="c"><path d="m15.175 3.132v19.667c3.262-2.195 11.637-7.143 20.824-7.143 9.189 0 17.562 4.948 20.824 7.143v-19.667z"/></clipPath><path d="m58.103 25.171c.018-1.114-.438-1.806-1.279-2.372-3.262-2.195-11.635-7.143-20.824-7.143-9.188 0-17.562 4.948-20.824 7.143-.84.565-1.295 1.258-1.279 2.372-.498 6.414-2.898 27.368-2.301 29.669.525 2.023 2.59 3.236 4.613 2.711.242-.062.473-.148.689-.252.33 3.588.596 6.473.752 8.146 0 .596.482 1.076 1.076 1.076h7.73c2.041 0 2.674-2.156 9.543-2.156 6.871 0 7.502 2.156 9.543 2.156h7.73c.596 0 1.021-.484 1.076-1.076.158-1.674.424-4.559.754-8.146.217.104.447.189.688.252 2.023.525 4.09-.688 4.615-2.711.598-2.301-1.802-23.256-2.302-29.669z" stroke="#000" stroke-width="3"/><path d="m53.079 52.938c-.525 2.023.689 4.088 2.711 4.613 2.023.525 4.09-.688 4.615-2.711.617-2.377-1.963-24.642-2.346-30.249" fill="#e32134"/><g clip-path="url(#a)" fill="none"><path d="m60.382 44.859-6.022.59" stroke="#fff" stroke-width="4.8"/><path d="m60.382 44.859-6.022.59" stroke="#ffc900" stroke-width="2"/></g><path d="m53.079 52.938c-.525 2.023.689 4.088 2.711 4.613 2.023.525 4.09-.688 4.615-2.711.617-2.377-1.963-24.642-2.346-30.249" fill="none" stroke="#000" stroke-width=".9"/><path d="m18.921 52.938c.525 2.023-.689 4.088-2.713 4.613s-4.088-.688-4.613-2.711c-.617-2.377 1.963-24.642 2.344-30.249" fill="#e32134"/><g clip-path="url(#b)" fill="none"><path d="m11.616 44.859 6.024.59" stroke="#fff" stroke-width="4.8"/><path d="m11.616 44.859 6.024.59" stroke="#ffc900" stroke-width="2"/></g><path d="m18.921 52.938c.525 2.023-.689 4.088-2.713 4.613s-4.088-.688-4.613-2.711c-.617-2.377 1.963-24.642 2.344-30.249" fill="none" stroke="#000" stroke-width=".9"/><path d="m54.349 65.445c.545-5.789 2.377-26.025 3.738-39.914.131-1.333-.334-2.107-1.264-2.732-3.262-2.195-11.635-7.143-20.824-7.143-9.188 0-17.562 4.948-20.824 7.143-.928.625-1.393 1.399-1.262 2.732 1.361 13.888 3.193 34.125 3.736 39.914 0 .596.482 1.076 1.076 1.076h7.73c2.041 0 2.674-2.156 9.543-2.156 6.871 0 7.502 2.156 9.543 2.156h7.73c.597 0 1.023-.484 1.078-1.076z" fill="#e32134"/><path d="m17.503 65.445 9.826.811-8.75.266c0-.001-.394-.395-1.076-1.077z" fill="#fff"/><path d="m54.495 65.445-9.824.811 8.75.266c0-.001.392-.395 1.074-1.077z" fill="#fff"/><g fill="none"><path d="m14.319 28.328 5.28 37.865" stroke="#a81421" stroke-miterlimit="10" stroke-width=".2"/><path d="m57.679 28.328-5.28 37.865" stroke="#a81421" stroke-miterlimit="10" stroke-width=".2"/><path d="m57.733 28.651c-7.879-7.879-9.705-11.043-21.734-11.043-12.027 0-13.854 3.164-21.732 11.043" stroke="#a81421" stroke-miterlimit="10" stroke-width=".2"/><path d="m35.972 17.128c7.283 0 10.561 3.484 10.561 7.629s-10.561 11.571-10.561 11.571-10.561-7.427-10.561-11.571c0-4.145 3.276-7.629 10.561-7.629z" stroke="#a81421" stroke-miterlimit="10" stroke-width=".2"/></g><ellipse cx="35.999" cy="68.129" rx="20.908" ry=".738"/><path d="m54.349 65.445c.545-5.789 2.377-26.025 3.738-39.914.131-1.333-.334-2.107-1.264-2.732-3.262-2.195-11.635-7.143-20.824-7.143-9.188 0-17.562 4.948-20.824 7.143-.928.625-1.393 1.399-1.262 2.732 1.361 13.888 3.193 34.125 3.736 39.914 0 .596.482 1.076 1.076 1.076h7.73c2.041 0 2.674-2.156 9.543-2.156 6.871 0 7.502 2.156 9.543 2.156h7.73c.597 0 1.023-.484 1.078-1.076z" fill="none" stroke="#000" stroke-width=".9"/><path d="m47.923 63.555s-4.311.555-11.924.555c-7.611 0-11.924-.555-11.924-.555" fill="none" stroke="#000" stroke-linecap="round" stroke-linejoin="round" stroke-width=".9"/><path d="m26.907 49.287 1.732-1.758h2.945l.545-.545v-3.959l-.521-.545h-.988l-.521.545v1.955h-3.191v-3.045l2.078-2.078h4.258l2.078 2.078v6.684l-1.758 1.756h-2.944l-.545.545v3.217h5.223v2.797h-8.391z" fill="#fff" stroke="#ffc900" stroke-miterlimit="10" stroke-width=".4"/><path d="m36.63 54.855v-3.143h3.168v1.904l.719.693h.891l.693-.693v-4.9l-.545-.543h-.939l-1.09 1.088h-2.897v-9.404h8.465v2.797h-5.297v4.084l1.213-1.189h2.352l1.932 1.906v7.4l-2.08 2.078h-4.529z" fill="#fff" stroke="#ffc900" stroke-miterlimit="10" stroke-width=".4"/><path d="m35.999 15.124c8.377 0 12.145 4.007 12.145 8.774 0 4.766-12.145 10.21-12.145 10.21s-12.145-5.444-12.145-10.21c0-4.768 3.768-8.774 12.145-8.774z" fill="#e8e8e8"/><path d="m31.308 22.036c-.289 1.575-1.098 2.847-1.805 2.843-.707-.006-1.043-1.286-.754-2.861.291-1.575 1.098-2.848 1.805-2.842.707.004 1.043 1.285.754 2.86z"/><path d="m30.519 23.201c-.104.389-.273.704-.377.704-.105 0-.105-.314-.002-.704s.271-.704.377-.704c.103 0 .103.315.002.704z" fill="#989a9c"/><path d="m40.69 22.036c.291 1.575 1.098 2.847 1.807 2.843.705-.006 1.043-1.286.752-2.861-.289-1.575-1.098-2.848-1.803-2.842-.707.004-1.045 1.285-.756 2.86z"/><path d="m42.659 23.109c.014.389.109.703.213.703.105 0 .18-.314.166-.703s-.107-.705-.211-.705c-.105.001-.178.316-.168.705z" fill="#989a9c"/><path d="m42.114 25.303h-12.228c-1.086 0-1.412 1.194-1.412 1.736v2.796c3.424 2.454 7.48 4.272 7.48 4.272s4.129-1.852 7.57-4.339c0-1.166 0-2.447 0-2.729 0-.542-.324-1.736-1.41-1.736z" fill="#fff"/><path d="m44.062 27.351c-4.453 2.802-11.67 2.802-16.123 0" fill="#fff" stroke="#000" stroke-linecap="round" stroke-linejoin="round" stroke-width=".4"/><path d="m29.185 26.281c-.006 0-.01 0-.018-.042-.062-.243-.152-.867-.004-1.606.002-.014.016-.062.021-.069.037 0 2.678.007 2.678.007s.43.176.73.438c.512.366.309.745-.01.949.033.038-.758.324-.758.324s-2.602-.001-2.639-.001z"/><path d="m42.815 26.281c.006 0 .008 0 .018-.042.062-.243.152-.867.004-1.606-.002-.014-.016-.062-.021-.069-.037 0-2.678.007-2.678.007s-.43.176-.73.438c-.512.366-.309.745.01.949-.033.038.758.324.758.324s2.602-.001 2.639-.001z"/><path d="m35.999 15.124c8.377 0 12.145 4.007 12.145 8.774 0 4.766-12.145 10.21-12.145 10.21s-12.145-5.444-12.145-10.21c0-4.768 3.768-8.774 12.145-8.774z" fill="none" stroke="#000" stroke-width=".8"/><path clip-path="url(#c)" d="m26.63 28.761s0-7.167 0-7.843.404-2.162 1.756-2.162h15.229c1.352 0 1.756 1.486 1.756 2.162s0 7.843 0 7.843l.867.541c1.148-1.149 2.479-1.794 2.479-3.784 0-.946 0-2.717 0-4.684 0-3.923-2.506-11.61-12.717-11.61-10.209 0-12.715 7.687-12.715 11.61v4.684c0 1.989 1.33 2.635 2.479 3.784z" stroke="#000" stroke-width="3"/><path d="m38.237 33.182c-1.584 1.582-2.891 1.582-4.475 0 0 0 1.023-.727 2.375-.727s2.1.727 2.1.727z" stroke="#000" stroke-width=".8"/><path d="m27.411 28.761s0-7.167 0-7.843.406-2.162 1.758-2.162h13.662c1.352 0 1.758 1.486 1.758 2.162s0 7.843 0 7.843l.096.541c1.148-1.149 4.031-2.708 4.031-4.696 0-.946 0-1.805 0-3.771 0-3.923-2.506-11.61-12.717-11.61-10.209 0-12.715 7.687-12.715 11.61v3.771c0 1.989 2.863 3.547 4.012 4.696z" fill="#e32134"/><g fill="none"><path d="m33.792 9.419h4.416v9.251h-4.416z" stroke="#fff" stroke-miterlimit="10" stroke-width=".2"/><path d="m27.411 28.761s0-7.167 0-7.843.406-2.162 1.758-2.162h13.662c1.352 0 1.758 1.486 1.758 2.162s0 7.843 0 7.843l.096.541c1.148-1.149 4.031-2.708 4.031-4.696 0-.946 0-1.805 0-3.771 0-3.923-2.506-11.61-12.717-11.61-10.209 0-12.715 7.687-12.715 11.61v3.771c0 1.989 2.863 3.547 4.012 4.696z" stroke="#000" stroke-width=".8"/><g stroke-miterlimit="10"><path d="m31.198 26.123v4.932" stroke="#b1c8d4" stroke-width=".8"/><path d="m35.999 26.123v4.932" stroke="#b1c8d4" stroke-width=".8"/><path d="m40.802 26.123v4.932" stroke="#b1c8d4" stroke-width=".8"/><path d="m23.663 21.457v1.425" stroke="#000" stroke-linecap="round" stroke-linejoin="round" stroke-width="1.2"/><path d="m48.337 21.457v1.425" stroke="#000" stroke-linecap="round" stroke-linejoin="round" stroke-width="1.2"/><path d="m44.618 26.079v3.05c0 1.08-.875 1.956-1.955 1.956h-13.326c-1.08 0-1.955-.875-1.955-1.956v-3.05" stroke="#b1c8d4" stroke-linecap="round" stroke-linejoin="round" stroke-width=".8"/><path d="m49.138 21.93v2.11c0 1.08-.875 1.956-1.957 1.956h-22.364c-1.08 0-1.955-.876-1.955-1.956v-2.11" stroke="#b1c8d4" stroke-linecap="round" stroke-linejoin="round" stroke-width=".8"/></g></g></svg>